# xmcd
#
# Track frame offsets:
#	150
#	9945
#	21378
#	32785
#	44611
#	56075
#	69300
#	80358
#	93255
#	101939
#	113606
#	125275
#	135228
#	146334
#	159116
#	172410
#	186655
#
# Disc length: 2651
#
# Revision: 2
# Processed by: cddbd v1.5.1PL0 Copyright (c) Steve Scherf et al.
# Submitted via: audiograbber 1.83.01
# Normalized: r1:TDELIM( - )
#
DISCID=e30a5911
DTITLE=Various Artist - Truck Driving Songs CD 4
DYEAR=1980
DGENRE=Country
TTITLE0=Truck Driving Outlaw - 01 - Denis Olsen
TTITLE1=Give Me 40 Acres - 02 - The Willis Brothers
TTITLE2=Big River - 03 - Johhny Cash
TTITLE3=Funny Face - 04 - Donna Fargo
TTITLE4=Walking After Midnight - 05 - Patsy Cline
TTITLE5=Dream Baby - 06 - Lacy J Dalton
TTITLE6=Oh Lonesome Me - 07 - Don Gibson
TTITLE7=It's Four In The Morning - 08 - Faron Young
TTITLE8=Wings Of A Dove - Ferlin Husky
TTITLE9=Do What You Do Do Well - 10 - Ned Miller
TTITLE10=Heartaches By The Number - 11 - Guy Mitchell
TTITLE11=Please Help Me I'm Falling - 12 - Hank Locklin
TTITLE12=Waterloo - 13 - Stonewall Jackson
TTITLE13=The Most Beautiful Girl - 14 - Charlie Rich
TTITLE14=Slide Off Your Satin Sheets - 15 - Johhny Paycheck
TTITLE15=I'm A Lonesome Fugitive - 16 - Merlin Haggard
TTITLE16=LA International Airport - 17 - Susan Raye
EXTD=
EXTT0=
EXTT1=
EXTT2=
EXTT3=
EXTT4=
EXTT5=
EXTT6=
EXTT7=
EXTT8=
EXTT9=
EXTT10=
EXTT11=
EXTT12=
EXTT13=
EXTT14=
EXTT15=
EXTT16=
PLAYORDER=
